<svg width="141" height="126" viewBox="0 0 141 126" fill="none" xmlns="http://www.w3.org/2000/svg">
<path d="M122.368 85.7067L101.442 82.8565C97.9726 82.3565 94.3917 83.4566 91.9857 85.7067L83.6488 93.4574C83.0333 93.0573 82.4179 92.7573 81.8583 92.6073L78.6691 78.5562C78.1095 75.856 76.0952 73.3058 71.619 72.6057L63.3941 71.3056L64.0655 67.9553C64.3452 66.6552 63.6738 65.8052 62.331 65.5552L52.7631 64.055C51.4202 63.855 50.469 64.4551 50.1893 65.7552L49.5179 69.1054L41.181 67.8053C36.7607 67.1053 33.9071 68.9054 32.2845 71.2556L23.8917 83.4566C21.5417 83.3566 17.0655 85.1067 16.1702 89.557L12.869 106.308L18.5202 107.208L17.4571 112.509C16.1702 119.109 26.8012 120.659 28.0881 114.159L29.1512 108.859L48.2869 111.859L67.4226 114.859L66.3595 120.159C65.0726 126.66 75.7036 128.46 76.9905 121.81L78.0536 116.509L83.7048 117.409L85.1036 110.209L116.381 114.959L122.368 85.7067ZM95.7905 88.957C97.0214 87.8069 98.8679 87.2569 100.658 87.5069L116.213 89.6571L113.919 101.158L86.7822 97.3577L95.7905 88.957ZM31.725 94.1074C31.2214 96.6576 28.7036 98.2077 26.0179 97.8077C23.3321 97.4077 21.5417 95.1075 22.0452 92.6073C22.4929 90.2071 25.0667 88.507 27.7524 88.907C30.4381 89.307 32.1726 91.5572 31.725 94.1074ZM29.9345 84.1566L36.2571 74.7059C37.0964 73.3558 38.1036 72.4057 40.006 72.7057L70.7238 77.5561C72.6262 77.8561 73.1857 79.0562 73.4655 80.6063L75.7595 91.4072L29.9345 84.1566ZM80.1798 101.708C79.6762 104.258 77.1583 105.808 74.4726 105.408C71.7869 105.008 69.9964 102.708 70.5 100.208C70.9476 97.8077 73.5214 96.1076 76.2071 96.5076C78.8929 96.9576 80.6833 99.2078 80.1798 101.708ZM46.5524 27.4522C46.3845 24.3019 44.5381 21.4017 41.5726 19.7016L23.8357 9.45074L6.49048 34.9027L37.3202 52.0541L47.2238 40.8032L46.5524 27.4522ZM25.5143 16.0013L38.719 23.6519C40.2298 24.5519 41.181 26.002 41.2929 27.6522L41.7964 39.2531L18.6881 26.002L25.5143 16.0013ZM4.64405 58.9546L16.1143 61.1048L3.13333 73.3558L0 64.5051L4.64405 58.9546ZM119.011 68.3054L138.035 62.8549L141 73.0057L126.229 73.7058L119.011 68.3054ZM64.0095 1.20009L60.0369 0L46.8321 4.70037L57.4631 15.4012L64.0095 1.20009ZM65.3524 13.7511V23.8519L77.7179 17.5014L65.3524 13.7511ZM136.3 47.9538L131.992 39.9531L126.285 29.4523L123.151 26.2521L127.851 24.2019C129.194 23.6019 129.754 22.2017 129.082 21.0017C128.411 19.8016 126.844 19.3015 125.501 19.9016L119.458 22.5018L112.52 15.5012C110.394 13.4011 106.925 12.751 104.071 14.0011L76.4869 25.902C73.6333 27.1521 72.0107 29.9524 72.5702 32.7526L74.3607 41.9533L68.7095 44.4035C67.3667 45.0035 66.8071 46.4036 67.4786 47.6037C68.15 48.8038 69.7167 49.3039 71.0595 48.7038L75.3119 46.8537L76.1512 51.054L81.8583 61.5548L86.1667 69.5555C86.8381 70.7556 88.4607 71.2556 89.8036 70.7056L93.1048 69.3055C94.4476 68.7054 95.0071 67.2553 94.3917 66.0552L91.65 60.9548L125.333 46.4037L128.075 51.5041C128.746 52.7041 130.369 53.2042 131.712 52.6541L135.013 51.254C136.412 50.654 136.971 49.2039 136.3 47.9538ZM85.8869 55.8544C83.369 55.8544 81.2988 54.0042 81.2988 51.7541C81.2988 49.5039 83.369 47.6538 85.8869 47.6538C88.4048 47.6538 90.475 49.5039 90.475 51.7541C90.475 54.0543 88.4048 55.8544 85.8869 55.8544ZM79.7321 45.0035L77.2143 32.0025C77.0464 31.0524 77.6059 30.1024 78.5571 29.6523L106.142 17.7514C107.093 17.3514 108.324 17.5514 109.051 18.2514L118.843 28.1022L79.7321 45.0035ZM120.465 41.0032C117.948 41.0032 115.877 39.1531 115.877 36.9029C115.877 34.6527 117.948 32.8026 120.465 32.8026C122.983 32.8026 125.054 34.6527 125.054 36.9029C125.054 39.1531 123.039 41.0032 120.465 41.0032Z" fill="#F40800"/>
</svg>
