<svg width="132" height="149" viewBox="0 0 132 149" fill="none" xmlns="http://www.w3.org/2000/svg">
<path d="M65.491 60.0382C75.0393 60.0382 82.7824 52.3415 82.7824 42.8422C82.7824 33.3429 75.0393 25.6412 65.491 25.6412C55.9404 25.6412 48.1973 33.3426 48.1973 42.8422C48.1973 52.3418 55.9401 60.0382 65.491 60.0382Z" fill="#F40800"/>
<path d="M103.359 1.26705C101.849 -0.344591 99.3095 -0.429276 97.6913 1.07323C96.0719 2.57545 93.874 10.0443 93.8898 10.0592C93.9045 10.0734 101.546 8.40155 103.164 6.89875C104.785 5.39654 104.87 2.87606 103.359 1.26705Z" fill="#F40800"/>
<path d="M94.3811 24.9697C96.2539 24.0588 97.0311 21.8122 96.116 19.9462C95.199 18.0828 92.9373 17.3119 91.0648 18.2208C89.1908 19.1319 85.1436 25.2584 85.1521 25.2779C85.1591 25.2947 92.5071 25.8835 94.3811 24.9697Z" fill="#F40800"/>
<path d="M86.1131 8.51262C87.2122 6.0844 86.1227 3.22955 83.6814 2.13941C81.2374 1.04374 78.3706 2.12719 77.2703 4.55541C76.1736 6.98364 77.2325 16.3354 77.2568 16.345C77.2811 16.3546 85.0166 10.9382 86.1131 8.51262Z" fill="#F40800"/>
<path d="M43.8259 87.6501V99.8786C43.8259 105.663 56.9038 109.977 65.9318 109.977C74.96 109.977 88.0368 105.663 88.0368 99.8786V87.6501L129.539 41.5436C132.425 38.3931 132.198 33.5148 129.033 30.6457C125.865 27.7737 120.955 28.0015 118.07 31.1471L87.0975 57.683C74.932 68.1033 56.9304 68.1033 44.7672 57.683L13.7928 31.1471C10.9067 28.0015 5.99912 27.7737 2.83119 30.6457C-0.336748 33.5148 -0.563239 38.3931 2.32202 41.5436L43.8259 87.6501Z" fill="#F40800"/>
<path d="M36.4619 93.786C36.1488 93.3206 34.2883 93.6405 31.5143 95.6325C30.158 96.6504 28.5439 98.1334 27.2756 100.479C25.9986 102.782 25.2568 106.16 26.1388 109.632C26.9807 113.11 29.2189 116.27 32.003 118.776C34.8039 121.296 38.1726 123.31 41.8485 124.882C49.2147 128.028 57.8386 129.579 66.8262 129.477C75.8156 129.366 84.4246 127.616 91.7141 124.165C95.3458 122.43 98.6662 120.256 101.322 117.469C103.971 114.726 105.911 111.147 106.186 107.521C106.508 103.901 105.202 100.763 103.681 98.7006C102.151 96.585 100.445 95.2931 99.0267 94.382C96.1309 92.6371 94.2728 92.3949 93.9804 92.8818C93.6416 93.4271 94.9098 94.7163 96.7583 96.9726C98.5225 99.1703 100.974 102.825 99.9722 106.663C99.1584 110.456 94.5481 114.336 88.3855 116.742C82.2302 119.217 74.6653 120.569 66.7226 120.656C58.7715 120.753 51.1776 119.582 44.8822 117.331C38.6098 115.136 33.634 111.556 32.1417 107.827C30.5065 104.112 32.3816 100.353 33.9837 98.0316C35.6212 95.6566 36.8371 94.3118 36.4619 93.786Z" fill="#F40800"/>
<path d="M128.317 100.828C125.997 97.4093 123.353 95.1673 121.126 93.5682C116.591 90.4349 113.652 89.6593 113.372 90.1343C113.019 90.6942 115.37 92.5116 118.857 96.1565C120.56 97.9934 122.536 100.339 124.038 103.327C125.529 106.293 126.425 109.933 125.675 113.74C124.973 117.53 122.559 121.364 118.894 124.665C115.236 127.99 110.448 130.801 105.067 133.064C94.2617 137.591 81.1031 140 67.3039 140.169C53.4947 140.32 40.2901 138.226 29.2732 134.104C23.7759 132.044 18.8379 129.449 14.877 126.373C10.9161 123.312 8.01031 119.711 6.69556 116.028C5.34306 112.351 5.60876 108.646 6.68825 105.566C7.75924 102.46 9.49772 99.9563 11.0343 98.0079C14.2007 94.1258 16.4806 92.2016 16.087 91.6539C15.7909 91.2081 12.8679 92.1047 8.56454 95.6042C6.46761 97.3901 3.99319 99.8984 2.12187 103.645C0.242061 107.329 -0.759588 112.524 0.692699 117.839C2.08441 123.158 5.64563 128.058 10.1623 131.988C14.7032 135.953 20.2074 139.138 26.2398 141.653C38.3298 146.672 52.5615 149.146 67.4077 148.993C82.2537 148.799 96.4564 145.991 108.394 140.487C114.342 137.724 119.747 134.262 124.028 129.912C128.292 125.615 131.365 120.138 131.889 114.604C132.483 109.068 130.602 104.185 128.317 100.828Z" fill="#F40800"/>
</svg>
