<svg width="177" height="150" viewBox="0 0 177 150" fill="none" xmlns="http://www.w3.org/2000/svg">
<g clip-path="url(#clip0_1_1174)">
<path d="M125.154 87.6989H124.173V84.4939C124.173 82.4243 122.006 81.3955 120.296 81.0135L117.604 76.7225C117.372 76.353 116.942 76.1019 116.452 76.0495L96.6472 73.9318L78.4214 49.4585C78.143 49.0848 77.658 48.8582 77.1365 48.8582H33.7064C33.0831 48.8582 32.5237 49.1807 32.2939 49.6716L21.6123 72.5256H11.2441C6.64337 72.5256 4.0044 74.7616 4.0044 78.6609V87.7195C1.75741 87.919 1.90735e-06 89.5342 1.90735e-06 91.4909V94.8204C1.90735e-06 96.9114 2.00733 98.6125 4.47462 98.6125H17.9862C18.81 104.779 24.9999 109.588 32.4929 109.588C39.9859 109.588 46.1761 104.779 47 98.6125H82.6275C83.4513 104.779 89.6408 109.588 97.1334 109.588C104.627 109.588 110.818 104.779 111.642 98.6125H125.153C127.62 98.6125 129.627 96.911 129.627 94.8201V91.4909C129.627 89.4 127.62 87.6989 125.154 87.6989ZM32.4933 103.794C28.2112 103.794 24.7272 100.842 24.7272 97.2123C24.7272 93.5831 28.2112 90.6302 32.4933 90.6302C36.7757 90.6302 40.2598 93.5828 40.2598 97.2123C40.2598 100.841 36.7757 103.794 32.4933 103.794ZM97.1338 103.794C92.8521 103.794 89.3685 100.842 89.3685 97.2123C89.3685 93.5831 92.8521 90.6302 97.1338 90.6302C101.417 90.6302 104.901 93.5828 104.901 97.212C104.901 100.841 101.417 103.794 97.1338 103.794Z" fill="#FF0000"/>
<path d="M123.498 56.2485C123.802 56.2839 124.112 56.3019 124.418 56.3019C127.761 56.3019 130.625 54.183 131.081 51.3727L131.917 46.2085C132.062 45.3111 131.787 44.4195 131.14 43.6982C130.62 43.1175 129.91 42.7029 129.103 42.4995C128.159 41.4521 126.774 40.7633 125.211 40.5814C124.943 40.5502 124.67 40.5344 124.401 40.5344C121.463 40.5344 118.946 42.3965 118.546 44.8663L117.743 49.8229C117.239 52.9383 119.821 55.8211 123.498 56.2485Z" fill="#FF0000"/>
<path d="M174.464 70.2335L161.279 65.2701C161.053 65.1665 160.815 65.0838 160.57 65.0158C160.513 64.9994 160.456 64.9804 160.397 64.9698C160.024 64.881 159.635 64.8295 159.237 64.8295C158.366 64.8295 157.526 65.0509 156.807 65.4703C156.795 65.4771 156.784 65.4838 156.772 65.4909L150.793 69.1883L142.09 60.7246L146.757 60.3653C147.747 60.32 148.66 59.9546 149.33 59.3344C149.428 59.2442 155.513 52.5621 155.513 52.5621C156.134 51.8803 156.405 51.0344 156.276 50.1802C156.146 49.3259 155.632 48.5653 154.828 48.0397C154.156 47.5997 153.352 47.3669 152.503 47.3669C151.315 47.3669 150.216 47.824 149.49 48.6207L144.545 54.0482C144.545 54.0482 133.031 54.9485 132.926 54.9771C132.155 55.1191 131.432 55.42 130.829 55.8652L126.883 58.7794C126.154 59.3183 125.65 60.019 125.416 60.7979C125.351 60.9186 123.653 74.0773 123.651 74.1025C123.606 74.8978 123.878 75.6642 124.419 76.3009C124.474 76.3842 130.954 82.4938 130.954 82.4938C130.978 82.517 131.004 82.5398 131.031 82.5614C131.8 83.1855 132.81 83.5293 133.875 83.5293C134.991 83.5293 136.073 83.1376 136.842 82.4562L136.919 82.3889C138.471 81.0145 138.429 78.8321 136.836 77.4992L132.144 73.0921L132.495 70.3255L147.751 85.645L144.267 93.4454C143.807 94.3132 143.765 95.2811 144.149 96.1769C144.541 97.0897 145.328 97.8188 146.358 98.2259L146.471 98.271C147.044 98.4976 147.653 98.6122 148.282 98.6122C149.943 98.6122 151.471 97.7878 152.172 96.5119C152.188 96.483 156.811 86.1375 156.811 86.1375C156.908 85.8629 156.92 85.6972 156.943 85.5896C157.147 84.6337 156.915 83.6677 156.267 82.8662C156.24 82.8324 151.535 78.0516 151.535 78.0516L159.8 72.776L170.9 76.9546C171.459 77.168 172.051 77.2762 172.661 77.2762C174.346 77.2762 175.882 76.4345 176.569 75.1428L176.622 75.0433C177.593 73.2157 176.628 71.0591 174.464 70.2335Z" fill="#FF0000"/>
<path d="M99.8575 67.7808L113.341 72.6089C113.63 72.7126 113.931 72.7618 114.227 72.7618C115.115 72.7618 115.96 72.3186 116.327 71.5818C116.817 70.5991 116.274 69.4661 115.115 69.0512L101.631 64.223C100.472 63.8078 99.135 64.2681 98.6451 65.2501C98.1555 66.2328 98.6979 67.3659 99.8575 67.7808Z" fill="#FF0000"/>
<path d="M113.308 64.898C113.698 65.5949 114.516 66.0024 115.369 66.0024C115.696 66.0024 116.028 65.9422 116.343 65.8157C117.481 65.359 117.966 64.2073 117.427 63.2432L105.272 41.5165C104.733 40.5525 103.374 40.1417 102.237 40.5988C101.1 41.0555 100.615 42.2072 101.154 43.1713L113.308 64.898Z" fill="#FF0000"/>
<path d="M159.238 57.3113C159.684 57.3113 160.134 57.2006 160.529 56.9702L174.582 48.7623C175.619 48.1571 175.88 46.9543 175.165 46.0762C174.451 45.1978 173.032 44.9767 171.996 45.5818L157.942 53.7897C156.906 54.3948 156.645 55.5977 157.359 56.4758C157.802 57.0194 158.514 57.3113 159.238 57.3113Z" fill="#FF0000"/>
<path d="M165.778 58.8C164.545 58.5831 163.339 59.2529 163.082 60.2968C162.825 61.341 163.616 62.3639 164.848 62.5815L173.964 64.1909C174.121 64.2185 174.277 64.2317 174.431 64.2317C175.487 64.2317 176.435 63.6054 176.659 62.6941C176.916 61.65 176.125 60.627 174.893 60.4094L165.778 58.8Z" fill="#FF0000"/>
</g>
<defs>
<clipPath id="clip0_1_1174">
<rect width="177" height="150" fill="white"/>
</clipPath>
</defs>
</svg>
