<svg width="38" height="31" viewBox="0 0 38 31" fill="none" xmlns="http://www.w3.org/2000/svg">
<path d="M23.2448 12.0371C23.1035 11.9219 22.9913 11.7852 22.9148 11.6346C22.8384 11.4841 22.799 11.3228 22.799 11.1598C22.799 10.9968 22.8384 10.8355 22.9148 10.6849C22.9913 10.5344 23.1035 10.3976 23.2448 10.2825L29.7713 4.95973H25.8402C25.4371 4.95973 25.0504 4.82909 24.7654 4.59654C24.4803 4.364 24.3202 4.04859 24.3202 3.71972C24.3202 3.39085 24.4803 3.07545 24.7654 2.8429C25.0504 2.61035 25.4371 2.47971 25.8402 2.47971H33.4403C33.8434 2.47971 34.23 2.61035 34.5151 2.8429C34.8001 3.07545 34.9603 3.39085 34.9603 3.71972V9.91978C34.9603 10.2487 34.8001 10.5641 34.5151 10.7966C34.23 11.0292 33.8434 11.1598 33.4403 11.1598C33.0371 11.1598 32.6505 11.0292 32.3654 10.7966C32.0804 10.5641 31.9202 10.2487 31.9202 9.91978V6.7128L25.3956 12.0371C25.2544 12.1524 25.0868 12.2439 24.9023 12.3063C24.7177 12.3687 24.5199 12.4008 24.3202 12.4008C24.1204 12.4008 23.9226 12.3687 23.7381 12.3063C23.5536 12.2439 23.386 12.1524 23.2448 12.0371ZM36.1649 20.8412L27.2139 17.5691L27.1892 17.5598C26.7245 17.3977 26.2176 17.3326 25.7144 17.3705C25.2111 17.4084 24.7274 17.548 24.3069 17.7768C24.2574 17.8035 24.2098 17.8325 24.1644 17.8636L19.5455 21.0799C16.6156 19.9189 13.5908 17.4699 12.1677 15.1108L16.1159 11.2807C16.1539 11.2419 16.19 11.2032 16.2242 11.1613C16.4986 10.8193 16.6651 10.4271 16.7089 10.0199C16.7527 9.61261 16.6723 9.20284 16.475 8.82702V8.80842L12.4527 1.4939C12.1919 1.00296 11.7435 0.593986 11.1744 0.328039C10.6052 0.0620932 9.94593 -0.0465647 9.29488 0.0182865C6.72031 0.294665 4.35709 1.32614 2.64661 2.92006C0.936129 4.51399 -0.0046378 6.56135 1.71925e-05 8.67977C1.71925e-05 20.9869 12.2741 31 27.3602 31C29.957 31.0038 32.4666 30.2363 34.4205 28.8409C36.3743 27.4455 37.6387 25.5176 37.9775 23.4173C38.0571 22.8864 37.9242 22.3487 37.5986 21.8844C37.2729 21.4201 36.772 21.0542 36.1706 20.8412H36.1649Z" fill="#FF0000"/>
</svg>
