<svg width="182" height="165" viewBox="0 0 182 165" fill="none" xmlns="http://www.w3.org/2000/svg">
<path d="M115.461 110.586C114.857 110.586 114.279 110.802 113.852 111.187C113.425 111.571 113.186 112.093 113.186 112.637C113.186 113.181 113.425 113.703 113.852 114.088C114.279 114.472 114.857 114.688 115.461 114.688C126.381 114.688 133.97 117.051 138.065 121.695C139.507 123.48 140.528 125.511 141.066 127.664C141.605 129.817 141.649 132.047 141.196 134.216C141.059 134.745 141.161 135.301 141.478 135.762C141.795 136.224 142.302 136.553 142.888 136.678C143.058 136.694 143.228 136.694 143.398 136.678C143.921 136.676 144.427 136.512 144.831 136.213C145.236 135.914 145.514 135.499 145.618 135.037C146.237 132.272 146.206 129.42 145.525 126.667C144.845 123.914 143.531 121.32 141.669 119.053C136.664 113.474 127.855 110.586 115.461 110.586Z" fill="#F40800"/>
<path d="M67.1944 112.637C67.1944 112.093 66.9547 111.571 66.5281 111.187C66.1014 110.802 65.5228 110.586 64.9194 110.586C52.6162 110.586 44.0258 113.458 39.4394 119.086C33.6154 126.208 36.5092 134.922 36.6366 135.283C36.78 135.7 37.0674 136.065 37.457 136.325C37.8465 136.585 38.3179 136.725 38.8024 136.727C39.0261 136.751 39.2521 136.751 39.4758 136.727C40.0525 136.568 40.5355 136.209 40.8188 135.729C41.102 135.249 41.1623 134.687 40.9864 134.167C40.9864 134.167 38.6386 126.914 43.0976 121.433C46.8286 116.92 54.1632 114.623 64.9376 114.623C65.5254 114.619 66.0887 114.41 66.5094 114.04C66.9301 113.67 67.1756 113.167 67.1944 112.637Z" fill="#F40800"/>
<path d="M139.74 56.2037C139.621 55.9573 139.45 55.7346 139.235 55.5482C139.021 55.3619 138.767 55.2158 138.49 55.1181C138.212 55.0205 137.916 54.9733 137.618 54.9794C137.321 54.9855 137.027 55.0446 136.755 55.1535C134.39 56.0843 131.958 56.8684 129.475 57.5001C129.392 57.4723 129.307 57.4503 129.22 57.4344C125.343 37.9395 109.928 24.4835 91.091 24.4835C72.254 24.4835 56.8386 37.9395 53.0712 57.4344C50.7865 57.9449 48.7571 59.1304 47.3067 60.8018C45.8562 62.4733 45.0682 64.5345 45.0682 66.6567C45.0682 68.779 45.8562 70.8402 47.3067 72.5117C48.7571 74.1831 50.7865 75.3686 53.0712 75.8791C56.8932 96.7524 73.0912 112.26 91.1274 112.26C109.164 112.26 125.325 96.818 129.22 75.8791C131.545 75.4365 133.622 74.2692 135.086 72.5825C136.551 70.8958 137.309 68.7976 137.228 66.6567C137.245 64.3338 136.342 62.0816 134.68 60.3061C135.99 59.8959 137.301 59.4364 138.648 58.9113C139.188 58.68 139.605 58.2662 139.81 57.7594C140.014 57.2527 139.989 56.6938 139.74 56.2037ZM91.091 28.5859C107.762 28.5859 121.376 40.8112 124.67 58.4518C118.198 59.4956 111.546 59.1782 105.233 57.5245C98.9193 55.8708 93.1143 52.9254 88.27 48.9177C87.8946 48.5749 87.3981 48.3611 86.8665 48.3132C86.3348 48.2652 85.8013 48.3862 85.358 48.6552L72.618 56.5155L73.801 51.5925C73.9303 51.1244 73.8725 50.6302 73.6378 50.1967C73.403 49.7632 73.0063 49.4182 72.5174 49.2222C72.0285 49.0263 71.4786 48.992 70.9645 49.1254C70.4503 49.2588 70.0047 49.5513 69.706 49.9515C66.7754 53.3699 62.6199 55.7652 57.9488 56.7288C61.7162 40.0072 75.0022 28.5859 91.091 28.5859ZM132.623 66.6567C132.716 67.9212 132.265 69.1692 131.363 70.1412C130.462 71.1132 129.179 71.7342 127.782 71.8751H127.418C126.833 71.824 126.249 71.9805 125.791 72.3115C125.332 72.6424 125.034 73.1217 124.961 73.6473C122.031 93.3391 107.471 108.108 91.1092 108.108C74.7474 108.108 60.1692 93.3391 57.2754 73.6473C57.2009 73.1542 56.9317 72.7019 56.5172 72.3733C56.1026 72.0447 55.5705 71.862 55.0186 71.8587H54.8184C54.7039 71.8415 54.5871 71.8415 54.4726 71.8587C53.0659 71.7257 51.7714 71.1057 50.8616 70.1292C49.9518 69.1528 49.4977 67.8962 49.595 66.6239C49.5023 65.357 49.9561 64.1067 50.8616 63.1343C51.7672 62.1619 53.0544 61.5425 54.4544 61.4056H54.8366C55.2458 61.4448 55.6586 61.3704 56.0196 61.1923C60.1912 60.6012 64.1783 59.2258 67.7222 57.1555L66.885 60.7164C66.7874 61.1141 66.8256 61.5292 66.9945 61.907C67.1634 62.2848 67.4552 62.6077 67.8314 62.8333C68.2044 63.0696 68.6495 63.1957 69.1054 63.1943C69.5616 63.1979 70.0075 63.0716 70.3794 62.8333L86.3954 52.9874C92.2843 57.3941 99.2424 60.487 106.705 62.0152C114.168 63.5434 121.925 63.4639 129.347 61.783C130.359 62.2216 131.207 62.9158 131.788 63.7811C132.37 64.6464 132.66 65.6455 132.623 66.6567Z" fill="#F40800"/>
<path d="M81.0082 73.0073C80.8135 72.4949 80.4018 72.0726 79.8631 71.8328C79.3243 71.593 78.7022 71.5551 78.1326 71.7274L72.9092 73.3684C72.4037 73.5276 71.9767 73.8425 71.7033 74.2577C71.4299 74.6728 71.3277 75.1616 71.4147 75.638C71.5017 76.1144 71.7722 76.5478 72.1788 76.8621C72.5853 77.1763 73.1017 77.3512 73.6372 77.3559C73.8839 77.3553 74.1291 77.3221 74.3652 77.2575L79.5886 75.6165C79.8736 75.5315 80.1369 75.3962 80.3631 75.2183C80.5894 75.0405 80.774 74.8237 80.9062 74.5808C81.0384 74.3378 81.1155 74.0735 81.133 73.8033C81.1505 73.5331 81.1081 73.2625 81.0082 73.0073Z" fill="#FF0000"/>
<path d="M107.052 73.3356L101.829 71.6946C101.546 71.6084 101.247 71.5733 100.948 71.5914C100.65 71.6095 100.359 71.6804 100.091 71.8C99.5498 72.0416 99.1374 72.467 98.9443 72.9828C98.8487 73.2381 98.8098 73.508 98.8299 73.7769C98.8499 74.0458 98.9286 74.3085 99.0612 74.55C99.1939 74.7916 99.378 75.0071 99.6031 75.1845C99.8282 75.3619 100.09 75.4975 100.373 75.5837L105.578 77.2247C105.82 77.2896 106.072 77.3227 106.324 77.3232C106.86 77.3184 107.376 77.1435 107.783 76.8293C108.189 76.5151 108.46 76.0816 108.547 75.6052C108.634 75.1288 108.532 74.64 108.258 74.2249C107.985 73.8097 107.558 73.4948 107.052 73.3356Z" fill="#FF0000"/>
<path d="M89.5804 84.9866C84.3934 84.9866 79.6432 88.2685 76.2034 94.4058L75.8576 95.013C75.6801 95.3254 75.5944 95.6736 75.6089 96.0244C75.6233 96.3752 75.7373 96.7167 75.94 97.0164C76.1427 97.3161 76.4274 97.5638 76.7666 97.736C77.1059 97.9081 77.4885 97.9989 77.8778 97.9996L100.937 97.376C101.319 97.3657 101.692 97.2688 102.022 97.0941C102.352 96.9195 102.627 96.6727 102.823 96.3767C103.019 96.0807 103.129 95.745 103.143 95.4005C103.157 95.056 103.074 94.7139 102.903 94.4058C99.5358 88.3342 94.7674 84.9866 89.5804 84.9866ZM81.9 93.7822C84.2114 90.7792 86.9232 89.089 89.5986 89.089C92.274 89.089 94.7492 90.6151 96.9878 93.3884L81.9 93.7822Z" fill="#FF0000"/>
<path d="M33.943 81.1466C33.8341 81.3977 33.7811 81.6656 33.7871 81.9351C33.7931 82.2046 33.858 82.4704 33.978 82.7173C34.098 82.9642 34.2708 83.1874 34.4865 83.374C34.7022 83.5606 34.9567 83.7071 35.2352 83.805L41.496 86.0039L37.0734 89.8767C36.7675 90.1256 36.543 90.4453 36.4243 90.8011C36.3056 91.1569 36.2972 91.5353 36.4 91.8951C36.4939 92.2403 36.6834 92.5584 36.9508 92.8195C37.2181 93.0807 37.5547 93.2764 37.9288 93.3884L51.9064 97.376C52.4738 97.5194 53.0808 97.4587 53.5996 97.2067C54.1183 96.9547 54.5084 96.531 54.6877 96.0248C54.8669 95.5187 54.8214 94.9696 54.5606 94.4932C54.2998 94.0167 53.8442 93.6501 53.2896 93.4704L42.9338 90.5167L47.1562 86.7916C47.4334 86.5539 47.6391 86.2566 47.7539 85.9275C47.8687 85.5985 47.8888 85.2485 47.8124 84.9105C47.736 84.5725 47.5655 84.2576 47.317 83.9953C47.0685 83.7331 46.7501 83.5321 46.3918 83.4112L36.855 80.1292C36.3168 79.9358 35.7174 79.9332 35.1772 80.1219C34.637 80.3107 34.1961 80.6768 33.943 81.1466Z" fill="#F40800"/>
<path d="M49.7042 105.515C49.6758 104.97 49.4092 104.456 48.9625 104.087C48.5158 103.718 47.9253 103.524 47.32 103.546L34.8166 104.006L36.4 99.7061C36.5267 99.3659 36.5514 99.0015 36.4715 98.6499C36.3915 98.2983 36.2099 97.972 35.945 97.7041C35.6787 97.4389 35.3416 97.2393 34.9658 97.1244C34.5899 97.0096 34.1877 96.9832 33.7974 97.0477L24.9886 98.6887C24.6908 98.7378 24.4068 98.84 24.1533 98.9893C23.8998 99.1386 23.682 99.332 23.5125 99.5582C23.343 99.7843 23.2252 100.039 23.1662 100.307C23.1071 100.574 23.108 100.85 23.1686 101.117C23.2208 101.385 23.3321 101.641 23.4959 101.869C23.6596 102.098 23.8725 102.294 24.1219 102.447C24.3713 102.6 24.6522 102.707 24.948 102.76C25.2438 102.814 25.5485 102.813 25.844 102.758L30.94 101.741L29.575 105.499C29.4583 105.815 29.4288 106.152 29.489 106.481C29.5493 106.81 29.6975 107.12 29.9208 107.386C30.1326 107.64 30.4078 107.845 30.7241 107.984C31.0403 108.124 31.3887 108.195 31.7408 108.19H31.8318L47.6112 107.616C48.192 107.574 48.7329 107.333 49.1223 106.942C49.5118 106.551 49.72 106.04 49.7042 105.515Z" fill="#F40800"/>
<path d="M147.857 81.1466C147.634 80.6422 147.199 80.2372 146.647 80.0192C146.096 79.8012 145.471 79.7877 144.908 79.9815L135.372 83.2635C135.008 83.3903 134.686 83.5992 134.438 83.8703C134.19 84.1414 134.023 84.4655 133.953 84.8115C133.884 85.1575 133.914 85.5138 134.041 85.8462C134.169 86.1786 134.389 86.4759 134.68 86.7096L138.902 90.4346L128.547 93.3884C128.252 93.4627 127.978 93.5898 127.739 93.762C127.501 93.9342 127.303 94.1479 127.158 94.3905C127.013 94.6331 126.924 94.8995 126.895 95.1739C126.867 95.4483 126.901 95.7249 126.993 95.9874C127.086 96.2499 127.237 96.4928 127.437 96.7017C127.636 96.9105 127.88 97.081 128.154 97.2029C128.428 97.3249 128.726 97.3958 129.032 97.4114C129.337 97.427 129.642 97.3871 129.93 97.2939L143.78 93.3063C144.156 93.1972 144.494 93.0023 144.762 92.7407C145.03 92.4791 145.218 92.1596 145.309 91.813C145.399 91.4682 145.387 91.1082 145.276 90.7686C145.164 90.4289 144.956 90.1215 144.672 89.8767L140.322 86.0039L146.565 83.805C146.843 83.7071 147.098 83.5606 147.313 83.374C147.529 83.1874 147.702 82.9642 147.822 82.7173C147.942 82.4704 148.007 82.2046 148.013 81.9351C148.019 81.6656 147.966 81.3977 147.857 81.1466Z" fill="#F40800"/>
<path d="M156.829 98.656L148.002 97.015C147.612 96.9455 147.208 96.9695 146.831 97.0847C146.455 97.1999 146.118 97.4022 145.855 97.6714C145.59 97.9392 145.408 98.2655 145.328 98.6171C145.248 98.9687 145.273 99.3331 145.4 99.6734L146.965 103.973L134.462 103.513C134.163 103.502 133.865 103.545 133.584 103.638C133.303 103.731 133.046 103.873 132.826 104.056C132.607 104.239 132.429 104.459 132.304 104.704C132.178 104.948 132.108 105.213 132.096 105.482C132.084 105.752 132.131 106.021 132.234 106.274C132.337 106.527 132.495 106.759 132.698 106.957C132.9 107.155 133.144 107.315 133.416 107.428C133.687 107.541 133.981 107.605 134.28 107.616L150.059 108.19C150.411 108.195 150.759 108.124 151.076 107.984C151.392 107.845 151.667 107.64 151.879 107.386C152.102 107.12 152.251 106.81 152.311 106.481C152.371 106.152 152.342 105.815 152.225 105.499L150.933 101.741L155.919 102.644C156.215 102.698 156.52 102.699 156.815 102.645C157.111 102.592 157.392 102.486 157.641 102.333C157.891 102.18 158.104 101.983 158.268 101.755C158.431 101.526 158.543 101.27 158.595 101.003C158.692 100.482 158.563 99.9471 158.234 99.5099C157.905 99.0728 157.402 98.7669 156.829 98.656Z" fill="#F40800"/>
<path d="M101.702 120.202C102.077 119.361 102.122 118.429 101.831 117.561C101.54 116.693 100.929 115.94 100.1 115.427C99.1605 114.667 97.9858 114.184 96.7333 114.043C95.4809 113.903 94.2107 114.11 93.093 114.639C92.1222 115.082 91.2172 115.633 90.3994 116.28C89.4106 115.867 88.3387 115.641 87.2495 115.616C86.1603 115.591 85.0769 115.766 84.0658 116.132C82.845 116.589 81.7142 117.221 80.717 118.003L78.5512 119.644C78.376 119.047 78.0591 118.491 77.6223 118.015C77.1855 117.539 76.6393 117.154 76.0214 116.887C75.3172 116.57 74.5378 116.414 73.751 116.431C72.9643 116.448 72.1941 116.639 71.5078 116.986L70.5978 117.445C67.7188 118.304 65.1955 119.928 63.36 122.104C61.5245 124.28 60.4629 126.907 60.3148 129.638C60.296 129.79 60.296 129.945 60.3148 130.097L62.0256 138.089C62.0481 138.386 62.143 138.676 62.3034 138.937C62.4638 139.198 62.6858 139.424 62.9538 139.598C63.4426 139.917 64.051 140.049 64.6472 139.966C65.2433 139.884 65.7792 139.592 66.1388 139.155C66.3323 138.924 66.4683 138.657 66.5374 138.374C66.6065 138.091 66.6071 137.798 66.5392 137.514L64.883 129.638C65.0576 127.773 65.8429 125.998 67.1391 124.537C68.4354 123.076 70.1841 121.996 72.163 121.433C72.3035 121.401 72.4383 121.351 72.5634 121.285L73.6372 120.727C73.682 120.706 73.732 120.694 73.7828 120.694C73.8336 120.694 73.8836 120.706 73.9284 120.727C74.0558 120.727 74.0558 120.842 74.0558 120.875C74.2759 121.82 74.1078 122.806 73.5826 123.648L71.89 124.994C71.5666 125.373 71.4006 125.843 71.4207 126.321C71.4407 126.799 71.6456 127.256 71.9999 127.612C72.3541 127.969 72.8354 128.202 73.3604 128.272C73.8854 128.343 74.4211 128.245 74.8748 127.997L76.804 126.487L83.5926 121.137C84.22 120.634 84.9408 120.234 85.722 119.956C86.2399 119.763 86.8078 119.706 87.36 119.792L82.0456 125.371C81.849 125.574 81.6991 125.81 81.6045 126.066C81.5099 126.321 81.4725 126.591 81.4945 126.86C81.5165 127.128 81.5975 127.391 81.7327 127.631C81.8679 127.871 82.0547 128.085 82.2822 128.259C82.6851 128.59 83.2115 128.772 83.7564 128.768C84.0989 128.769 84.4372 128.7 84.746 128.566C85.0549 128.433 85.3263 128.238 85.54 127.997L94.458 118.66C94.8832 118.411 95.3601 118.244 95.8594 118.167C96.0839 118.141 96.312 118.162 96.5264 118.227C96.7409 118.293 96.936 118.401 97.097 118.545L97.461 118.873C97.3336 119.086 97.1152 119.382 96.9332 119.628L96.824 119.759L87.36 130.064C86.9874 130.482 86.8112 131.015 86.869 131.549C86.9268 132.083 87.2141 132.575 87.6694 132.92C88.0828 133.217 88.5963 133.38 89.1254 133.379C89.473 133.389 89.8184 133.327 90.1343 133.196C90.4502 133.065 90.7279 132.869 90.9454 132.624L98.8988 123.894C99.3537 125.102 99.2887 126.42 98.7168 127.586C98.3535 128.244 97.8809 128.847 97.3154 129.375L97.1698 129.523L90.818 136.678C90.5645 136.982 90.4101 137.345 90.3722 137.724C90.3343 138.103 90.4142 138.485 90.6032 138.826C90.7921 139.166 91.0826 139.453 91.442 139.653C91.8014 139.853 92.2155 139.96 92.638 139.96C92.9869 139.967 93.3328 139.901 93.6486 139.767C93.9643 139.633 94.2414 139.435 94.458 139.188L100.682 132.132C101.548 131.313 102.266 130.377 102.812 129.359C103.507 128.012 103.836 126.536 103.773 125.053C103.71 123.569 103.255 122.12 102.448 120.826C102.247 120.575 101.994 120.363 101.702 120.202Z" fill="#F40800"/>
</svg>
