<svg width="36" height="36" viewBox="0 0 36 36" fill="none" xmlns="http://www.w3.org/2000/svg">
<g clip-path="url(#clip0_84_100)">
<path d="M12.5408 1.18409C8.94387 2.43191 5.84186 4.80031 3.69043 7.94141C1.539 11.0825 0.451556 14.8307 0.587824 18.6356C0.724093 22.4404 2.07689 26.1012 4.44752 29.0803C6.81814 32.0595 10.0816 34.1999 13.7586 35.1872C16.7397 35.9564 19.8629 35.9902 22.8599 35.2857C25.5748 34.6758 28.0849 33.3714 30.1443 31.5C32.2876 29.4929 33.8434 26.9395 34.6443 24.1144C35.5148 21.0422 35.6697 17.8114 35.0971 14.67H18.3571V21.6141H28.0518C27.858 22.7216 27.4428 23.7787 26.831 24.722C26.2192 25.6653 25.4234 26.4755 24.4911 27.1041C23.3073 27.8872 21.9728 28.4141 20.5733 28.651C19.1697 28.912 17.73 28.912 16.3265 28.651C14.9039 28.3568 13.5581 27.7697 12.3749 26.9269C10.4741 25.5814 9.04679 23.6698 8.29677 21.465C7.53406 19.2189 7.53406 16.7839 8.29677 14.5378C8.83065 12.9634 9.71324 11.53 10.8786 10.3444C12.2123 8.96275 13.9008 7.97514 15.7588 7.48993C17.6168 7.00471 19.5725 7.04064 21.4115 7.59378C22.848 8.03475 24.1616 8.80522 25.2477 9.84377C26.3408 8.75628 27.4321 7.66596 28.5215 6.57284C29.084 5.98503 29.6971 5.42534 30.2511 4.82346C28.5934 3.28074 26.6474 2.08031 24.5249 1.29096C20.6597 -0.112503 16.4305 -0.15022 12.5408 1.18409Z" fill="white"/>
<path d="M12.5411 1.18405C16.4304 -0.151164 20.6596 -0.11444 24.5251 1.28811C26.648 2.08282 28.5931 3.28903 30.2486 4.83749C29.6861 5.43936 29.0926 6.00186 28.5189 6.58686C27.4276 7.67624 26.3373 8.76186 25.2479 9.84374C24.1619 8.80519 22.8482 8.03472 21.4117 7.59374C19.5734 7.03867 17.6177 7.00066 15.7592 7.48389C13.9007 7.96712 12.2112 8.95291 10.8761 10.3331C9.71065 11.5187 8.82807 12.9522 8.29418 14.5266L2.46387 10.0125C4.55077 5.87407 8.1641 2.70849 12.5411 1.18405Z" fill="#E33629"/>
<path d="M0.916857 14.4844C1.23023 12.9313 1.75049 11.4273 2.46373 10.0125L8.29404 14.5378C7.53134 16.7839 7.53134 19.2189 8.29404 21.465C6.35154 22.965 4.40811 24.4725 2.46373 25.9875C0.678218 22.4334 0.133668 18.3839 0.916857 14.4844Z" fill="#F8BD00"/>
<path d="M18.3572 14.6672H35.0972C35.6698 17.8085 35.5149 21.0394 34.6444 24.1116C33.8435 26.9366 32.2877 29.49 30.1444 31.4972C28.2628 30.0291 26.3728 28.5722 24.4913 27.1041C25.4241 26.4748 26.2203 25.6638 26.8321 24.7194C27.444 23.7751 27.8588 22.717 28.0519 21.6084H18.3572C18.3544 19.2966 18.3572 16.9819 18.3572 14.6672Z" fill="#587DBD"/>
<path d="M2.46094 25.9875C4.40531 24.4875 6.34875 22.98 8.29125 21.465C9.04277 23.6706 10.4721 25.5822 12.375 26.9269C13.5619 27.7658 14.9106 28.3481 16.335 28.6369C17.7386 28.8979 19.1783 28.8979 20.5819 28.6369C21.9814 28.4 23.3159 27.8731 24.4997 27.09C26.3813 28.5582 28.2712 30.015 30.1528 31.4832C28.0938 33.3555 25.5837 34.6609 22.8684 35.2716C19.8715 35.9761 16.7482 35.9424 13.7672 35.1732C11.4095 34.5436 9.20721 33.4339 7.29844 31.9135C5.27811 30.3095 3.628 28.2881 2.46094 25.9875Z" fill="#319F43"/>
</g>
<defs>
<clipPath id="clip0_84_100">
<rect width="36" height="36" fill="white"/>
</clipPath>
</defs>
</svg>
