<svg width="121" height="95" viewBox="0 0 121 95" fill="none" xmlns="http://www.w3.org/2000/svg">
<path d="M31.0114 51.3764H9.70455C8.57437 51.3764 7.49047 50.9681 6.69131 50.2414C5.89215 49.5147 5.44319 48.529 5.44319 47.5013C5.44319 46.4735 5.89215 45.4879 6.69131 44.7612C7.49047 44.0344 8.57437 43.6262 9.70455 43.6262H28.7315L35.9865 33.7253C36.3755 33.1937 36.9029 32.7578 37.5218 32.4563C38.1407 32.1548 38.832 31.9971 39.5341 31.9971C40.2362 31.9971 40.9275 32.1548 41.5464 32.4563C42.1653 32.7578 42.6927 33.1937 43.0817 33.7253L56.5795 52.132L61.5547 45.3506C61.9442 44.8198 62.4718 44.3846 63.0906 44.0838C63.7095 43.7829 64.4005 43.6258 65.1023 43.6262H77.8864C79.0165 43.6262 80.1004 44.0344 80.8996 44.7612C81.6988 45.4879 82.1477 46.4735 82.1477 47.5013C82.1477 48.529 81.6988 49.5147 80.8996 50.2414C80.1004 50.9681 79.0165 51.3764 77.8864 51.3764H67.3821L60.1271 61.2773C59.7381 61.8088 59.2107 62.2447 58.5918 62.5462C57.9729 62.8477 57.2817 63.0055 56.5795 63.0055C55.8774 63.0055 55.1862 62.8477 54.5673 62.5462C53.9484 62.2447 53.421 61.8088 53.032 61.2773L39.5341 42.8608L34.559 49.6423C34.1707 50.1749 33.6436 50.612 33.0247 50.9145C32.4057 51.2171 31.7141 51.3757 31.0114 51.3764ZM87.4744 1C76.4748 1 66.8441 5.30137 60.8409 12.572C54.8377 5.30137 45.207 1 34.2074 1C25.4515 1.00897 17.057 4.17594 10.8657 9.8061C4.67433 15.4363 1.19169 23.0698 1.18182 31.0321C1.18182 31.3954 1.18182 31.7587 1.18182 32.122C1.21714 33.1497 1.69998 34.1226 2.52411 34.8266C3.34825 35.5306 4.44617 35.9081 5.57635 35.876C6.70654 35.8438 7.7764 35.4048 8.55059 34.6553C9.32478 33.9059 9.73987 32.9075 9.70455 31.8798C9.70455 31.5988 9.70455 31.313 9.70455 31.0321C9.71301 25.1249 12.2973 19.4619 16.8906 15.2849C21.4839 11.1079 27.7114 8.7579 34.2074 8.75021C44.5678 8.75021 53.2663 13.7685 56.8992 21.8287C57.2202 22.5394 57.7664 23.1473 58.4682 23.5752C59.1701 24.003 59.996 24.2314 60.8409 24.2314C61.6859 24.2314 62.5117 24.003 63.2136 23.5752C63.9155 23.1473 64.4616 22.5394 64.7827 21.8287C68.4155 13.7539 77.114 8.75021 87.4744 8.75021C93.9704 8.7579 100.198 11.1079 104.791 15.2849C109.385 19.4619 111.969 25.1249 111.977 31.0321C111.977 57.0001 70.5568 80.5123 60.8409 85.6711C55.0721 82.6146 38.1332 73.077 25.3224 60.3812C24.944 60.0059 24.488 59.702 23.9804 59.487C23.4729 59.2719 22.9237 59.1499 22.3643 59.1279C21.8048 59.1058 21.2461 59.1842 20.72 59.3585C20.1939 59.5328 19.7107 59.7997 19.2979 60.1438C18.8852 60.488 18.5511 60.9026 18.3146 61.3642C18.0781 61.8258 17.944 62.3252 17.9197 62.8339C17.8955 63.3426 17.9817 63.8507 18.1734 64.3291C18.3651 64.8075 18.6585 65.2469 19.0369 65.6222C35.6403 82.0915 57.8846 93.0774 58.8221 93.5375C59.4426 93.8411 60.1363 94 60.8409 94C61.5455 94 62.2392 93.8411 62.8597 93.5375C65.2141 92.3847 120.5 64.9393 120.5 31.0321C120.49 23.0698 117.007 15.4363 110.816 9.8061C104.625 4.17594 96.2303 1.00897 87.4744 1Z" fill="#FF0000" stroke="#FF0000"/>
</svg>
